<svg xmlns="http://www.w3.org/2000/svg" width="18.36" height="18.777" viewBox="0 0 18.36 18.777"><defs><style>.a{fill:#827cbf;}</style></defs><g transform="translate(-5.411)"><g transform="translate(5.411)"><path class="a" d="M22.137,54.15v2.271a1.855,1.855,0,0,1-1.859,1.854H19.1a1.865,1.865,0,0,1-1.87-1.854v-2.28H11.948v2.28a1.865,1.865,0,0,1-1.87,1.854H8.9a1.855,1.855,0,0,1-1.859-1.854V54.15a1.691,1.691,0,0,0-1.634,1.682V69.143a1.692,1.692,0,0,0,1.683,1.693H22.088a1.693,1.693,0,0,0,1.683-1.693V55.832A1.691,1.691,0,0,0,22.137,54.15Zm-.545,14.164a.728.728,0,0,1-.728.728H8.286a.728.728,0,0,1-.728-.728V61.439a.728.728,0,0,1,.728-.728H20.865a.728.728,0,0,1,.728.728v6.876Z" transform="translate(-5.411 -52.059)"/><path class="a" d="M80.188,5h1.16a.637.637,0,0,0,.638-.637V.637A.638.638,0,0,0,81.348,0h-1.16a.638.638,0,0,0-.638.637V4.361A.637.637,0,0,0,80.188,5Z" transform="translate(-76.698)"/><path class="a" d="M345.1,5h1.16a.637.637,0,0,0,.637-.637V.637A.637.637,0,0,0,346.256,0H345.1a.638.638,0,0,0-.638.637V4.361A.637.637,0,0,0,345.1,5Z" transform="translate(-331.417)"/></g></g></svg>